<svg aria-hidden="true" style="width:0;height:0;position:absolute;overflow:hidden" xmlns="http://www.w3.org/2000/svg"><defs><symbol id="icon-success" viewBox="0 0 32 32"><path fill="#6bc839" style="fill:var(--color1,#6bc839)" d="M16 0C7.2 0 0 7.2 0 16s7.2 16 16 16 16-7.2 16-16S24.8 0 16 0zm0 29.6C8.48 29.6 2.4 23.52 2.4 16S8.48 2.4 16 2.4 29.6 8.48 29.6 16 23.52 29.6 16 29.6zm8.32-18.08c0 .32-.16.64-.32.8l-8.96 8.96c-.16.16-.48.32-.8.32s-.64-.16-.8-.32l-5.12-5.12c-.48-.16-.64-.48-.64-.8 0-.64.48-1.28 1.28-1.28.32.16.64.32.8.48l4.32 4.32 8.16-8.16c.16-.16.48-.32.8-.32.64-.16 1.28.48 1.28 1.12z"/></symbol><symbol id="icon-edit" viewBox="0 0 32 32"><path d="M16 31.68C7.341 31.68.32 24.659.32 16S7.341.32 16 .32C24.659.32 31.68 7.341 31.68 16S24.659 31.68 16 31.68zm-.003-28.746C8.781 2.934 2.931 8.784 2.931 16s5.85 13.066 13.066 13.066c7.216 0 13.066-5.85 13.066-13.066S23.213 2.934 15.997 2.934zm-.199 18.935c-.227.387-.63.662-1.114.662h-3.92a1.306 1.306 0 0 1-1.306-1.306v-3.702c-.048-.4.058-.813.365-1.12l7.878-7.878a1.346 1.346 0 0 1 1.907 0l3.818 3.814a1.351 1.351 0 0 1 0 1.907l-7.629 7.622zm2.855-10.483-6.582 6.586v1.949h1.862l6.624-6.624-1.904-1.91z"/></symbol><symbol id="icon-delete" viewBox="0 0 32 32"><path d="M16 .32C7.341.32.32 7.341.32 16S7.341 31.68 16 31.68 31.68 24.659 31.68 16 24.659.32 16 .32zm0 27.44C9.507 27.76 4.24 22.493 4.24 16S9.507 4.24 16 4.24c6.493 0 11.76 5.267 11.76 11.76S22.493 27.76 16 27.76z"/><path d="M22.928 20.157 18.771 16l4.157-4.157-2.771-2.774L16 13.229l-4.157-4.16-2.774 2.774L13.229 16l-4.16 4.157 2.774 2.771L16 18.771l4.157 4.157 2.771-2.771z"/></symbol><symbol id="icon-form-person" viewBox="0 0 32 32"><path d="M16 16a5.333 5.333 0 1 0 0-10.666A5.333 5.333 0 1 0 16 16zm0 2.667c-3.561 0-10.667 1.787-10.667 5.333v1.333c0 .732.599 1.333 1.333 1.333h18.667c.732 0 1.333-.601 1.333-1.333V24c0-3.547-7.108-5.333-10.667-5.333z"/></symbol><symbol id="icon-form-phone" viewBox="0 0 32 32"><path d="m24.882 19.773-3.268-.373a2.561 2.561 0 0 0-2.11.733L17.137 22.5a19.357 19.357 0 0 1-8.478-8.478l2.38-2.38a2.561 2.561 0 0 0 .733-2.11l-.373-3.242a2.575 2.575 0 0 0-2.56-2.277H6.613c-1.454 0-2.663 1.209-2.573 2.663.682 10.987 9.469 19.761 20.443 20.443 1.454.09 2.663-1.119 2.663-2.573V22.32a2.549 2.549 0 0 0-2.264-2.547z"/></symbol><symbol id="icon-form-email" viewBox="0 0 32 32"><path d="M26.667 5.333H5.334A2.662 2.662 0 0 0 2.682 8l-.014 16c0 1.467 1.2 2.667 2.667 2.667h21.333c1.467 0 2.667-1.2 2.667-2.667V8c0-1.467-1.2-2.667-2.667-2.667zm-.534 5.668-9.426 5.892a1.343 1.343 0 0 1-1.421-.004l.006.003L5.866 11A1.133 1.133 0 1 1 7.07 9.083l-.004-.003 8.933 5.586 8.933-5.588a1.132 1.132 0 1 1 1.204 1.916l-.005.003z"/></symbol><symbol id="icon-age" viewBox="0 0 32 32"><path d="M16 .668h-.013C7.526.668.666 7.527.666 15.989c0 2.764.732 5.356 2.012 7.595l-.04-.075-1.97 6.18 5.902-1.6a15.227 15.227 0 0 0 9.419 3.236c8.465 0 15.328-6.863 15.328-15.328C31.317 7.535 24.46.675 16 .669h-.001z"/><path fill="#fff" d="M27.499 16c0 6.351-5.148 11.499-11.499 11.499S4.501 22.351 4.501 16C4.501 9.649 9.649 4.501 16 4.501S27.499 9.649 27.499 16z"/><path d="M16 32h-.03a15.763 15.763 0 0 1-9.581-3.228l.039.028-5.586 1.532a.666.666 0 0 1-.809-.851l-.001.005 1.884-5.906C.714 21.388.006 18.776.006 16c0-8.837 7.163-16 16-16s16 7.163 16 16-7.163 16-16 16h-.007zm-9.429-4.59a.666.666 0 0 1 .41.143l-.001-.001a14.425 14.425 0 0 0 8.984 3.115h.038H16h.007c8.108 0 14.681-6.573 14.681-14.681S24.115 1.305 16.007 1.305c-8.108 0-14.681 6.573-14.681 14.681 0 2.652.703 5.139 1.933 7.286l-.038-.072a.654.654 0 0 1 .052.535l.001-.005-1.6 4.992 4.725-1.291a.644.644 0 0 1 .168-.021h.002z"/><path d="M16.053 21.067H14.72v-3.264c0-.367.298-.665.665-.665h.004c3.065 0 5.205-1.888 5.205-4.59s-1.707-4.59-4.153-4.59c-2.631 0-5.028 2.315-5.028 4.853h-1.337c0-3.296 2.972-6.187 6.361-6.187 3.179 0 5.486 2.489 5.486 5.924 0 3.228-2.432 5.621-5.87 5.899z"/><path fill="#576065" d="M14.72 23.097h1.333v1.614H14.72v-1.614z"/></symbol></defs></svg>