<svg xmlns="http://www.w3.org/2000/svg" aria-hidden="true" style="width:0;height:0;position:absolute;overflow:hidden"><defs><symbol id="icon-success" viewBox="0 0 32 32"><path fill="#6bc839" d="M16 0C7.2 0 0 7.2 0 16s7.2 16 16 16 16-7.2 16-16S24.8 0 16 0zm0 29.6C8.48 29.6 2.4 23.52 2.4 16S8.48 2.4 16 2.4 29.6 8.48 29.6 16 23.52 29.6 16 29.6zm8.32-18.08c0 .32-.16.64-.32.8l-8.96 8.96c-.16.16-.48.32-.8.32s-.64-.16-.8-.32l-5.12-5.12c-.48-.16-.64-.48-.64-.8 0-.64.48-1.28 1.28-1.28.32.16.64.32.8.48l4.32 4.32 8.16-8.16c.16-.16.48-.32.8-.32.64-.16 1.28.48 1.28 1.12z" style="fill:var(--color1,#6bc839)"/></symbol></defs></svg>