<svg aria-hidden="true" style="position: absolute; width: 0; height: 0; overflow: hidden;" version="1.1" xmlns="http://www.w3.org/2000/svg" xmlns:xlink="http://www.w3.org/1999/xlink">
<defs>
<symbol id="icon-success" viewBox="0 0 32 32">
<path fill="#6bc839" style="fill: var(--color1, #6bc839)" d="M16 0c-8.8 0-16 7.2-16 16s7.2 16 16 16 16-7.2 16-16-7.2-16-16-16zM16 29.6c-7.52 0-13.6-6.080-13.6-13.6s6.080-13.6 13.6-13.6 13.6 6.080 13.6 13.6-6.080 13.6-13.6 13.6zM24.32 11.52c0 0.32-0.16 0.64-0.32 0.8l-8.96 8.96c-0.16 0.16-0.48 0.32-0.8 0.32s-0.64-0.16-0.8-0.32l-5.12-5.12c-0.48-0.16-0.64-0.48-0.64-0.8 0-0.64 0.48-1.28 1.28-1.28 0.32 0.16 0.64 0.32 0.8 0.48l4.32 4.32 8.16-8.16c0.16-0.16 0.48-0.32 0.8-0.32 0.64-0.16 1.28 0.48 1.28 1.12z"></path>
</symbol>
<symbol id="icon-edit" viewBox="0 0 32 32">
<path d="M16 31.68c-8.659 0-15.68-7.021-15.68-15.68s7.021-15.68 15.68-15.68c8.659 0 15.68 7.021 15.68 15.68s-7.021 15.68-15.68 15.68v0zM15.997 2.934c-7.216 0-13.066 5.85-13.066 13.066s5.85 13.066 13.066 13.066c7.216 0 13.066-5.85 13.066-13.066s-5.85-13.066-13.066-13.066v0zM15.798 21.869c-0.227 0.387-0.63 0.662-1.114 0.662h-3.92c-0.723 0-1.306-0.586-1.306-1.306v-3.702c-0.048-0.4 0.058-0.813 0.365-1.12l7.878-7.878c0.528-0.528 1.382-0.528 1.907 0l3.818 3.814c0.525 0.528 0.525 1.382 0 1.907l-7.629 7.622zM18.653 11.386l-6.582 6.586v1.949h1.862l6.624-6.624-1.904-1.91z"></path>
</symbol>
<symbol id="icon-delete" viewBox="0 0 32 32">
<path d="M16 0.32c-8.659 0-15.68 7.021-15.68 15.68s7.021 15.68 15.68 15.68 15.68-7.021 15.68-15.68-7.021-15.68-15.68-15.68zM16 27.76c-6.493 0-11.76-5.267-11.76-11.76s5.267-11.76 11.76-11.76c6.493 0 11.76 5.267 11.76 11.76s-5.267 11.76-11.76 11.76z"></path>
<path d="M22.928 20.157l-4.157-4.157 4.157-4.157-2.771-2.774-4.157 4.16-4.157-4.16-2.774 2.774 4.16 4.157-4.16 4.157 2.774 2.771 4.157-4.157 4.157 4.157 2.771-2.771z"></path>
</symbol>
<symbol id="icon-form-person" viewBox="0 0 32 32">
    <path d="M16 16c2.946 0 5.333-2.388 5.333-5.333s-2.388-5.333-5.333-5.333v0c-2.946 0-5.333 2.388-5.333 5.333s2.388 5.333 5.333 5.333v0zM16 18.667c-3.561 0-10.667 1.787-10.667 5.333v1.333c0 0.732 0.599 1.333 1.333 1.333h18.667c0.732 0 1.333-0.601 1.333-1.333v-1.333c0-3.547-7.108-5.333-10.667-5.333z"></path>
</symbol>
<symbol id="icon-form-phone" viewBox="0 0 32 32">
      <path d="m24.882 19.773-3.268-.373a2.561 2.561 0 0 0-2.11.733L17.137 22.5a19.357 19.357 0 0 1-8.478-8.478l2.38-2.38a2.561 2.561 0 0 0 .733-2.11l-.373-3.242a2.575 2.575 0 0 0-2.56-2.277H6.613c-1.454 0-2.663 1.209-2.573 2.663.682 10.987 9.469 19.761 20.443 20.443 1.454.09 2.663-1.119 2.663-2.573V22.32a2.549 2.549 0 0 0-2.264-2.547z"/>
    </symbol>
<symbol id="icon-form-email" viewBox="0 0 32 32">
    <path d="M26.667 5.333h-21.333c-1.467 0-2.652 1.2-2.652 2.667l-0.014 16c0 1.467 1.2 2.667 2.667 2.667h21.333c1.467 0 2.667-1.2 2.667-2.667v-16c0-1.467-1.2-2.667-2.667-2.667zM26.133 11.001l-9.426 5.892c-0.201 0.126-0.446 0.2-0.708 0.2s-0.506-0.075-0.713-0.204l0.006 0.003-9.426-5.892c-0.336-0.201-0.557-0.562-0.557-0.975 0-0.625 0.507-1.132 1.132-1.132 0.233 0 0.449 0.070 0.629 0.19l-0.004-0.003 8.933 5.586 8.933-5.588c0.176-0.118 0.392-0.188 0.624-0.188 0.625 0 1.132 0.507 1.132 1.132 0 0.413-0.221 0.775-0.552 0.972l-0.005 0.003z"></path>
</symbol>
<symbol id="icon-age" viewBox="0 0 32 32">
<path d="M16 0.668c-0.004 0-0.009 0-0.013 0-8.461 0-15.321 6.859-15.321 15.321 0 2.764 0.732 5.356 2.012 7.595l-0.040-0.075-1.97 6.18 5.902-1.6c2.571 2.018 5.853 3.236 9.419 3.236 8.465 0 15.328-6.863 15.328-15.328 0-8.462-6.857-15.322-15.317-15.328h-0.001z"></path>
<path fill="#fff"  d="M27.499 16c0 6.351-5.148 11.499-11.499 11.499s-11.499-5.148-11.499-11.499c0-6.351 5.148-11.499 11.499-11.499s11.499 5.148 11.499 11.499z"></path>
<path d="M16 32c-0.009 0-0.019 0-0.030 0-3.601 0-6.921-1.203-9.581-3.228l0.039 0.028-5.586 1.532c-0.053 0.015-0.115 0.024-0.178 0.024-0.367 0-0.665-0.298-0.665-0.665 0-0.074 0.012-0.144 0.034-0.21l-0.001 0.005 1.884-5.906c-1.202-2.192-1.91-4.804-1.91-7.58 0-8.837 7.163-16 16-16s16 7.163 16 16c0 8.837-7.163 16-16 16-0.002 0-0.005 0-0.007 0h0zM6.571 27.41c0.155 0.001 0.297 0.054 0.41 0.143l-0.001-0.001c2.446 1.941 5.578 3.115 8.984 3.115 0.013 0 0.026-0 0.038-0h-0.002c0.002 0 0.005 0 0.007 0 8.108 0 14.681-6.573 14.681-14.681s-6.573-14.681-14.681-14.681c-8.108 0-14.681 6.573-14.681 14.681 0 2.652 0.703 5.139 1.933 7.286l-0.038-0.072c0.054 0.094 0.085 0.206 0.085 0.326 0 0.073-0.012 0.143-0.033 0.209l0.001-0.005-1.6 4.992 4.725-1.291c0.051-0.014 0.109-0.021 0.168-0.021 0.001 0 0.002 0 0.002 0h-0z"></path>
<path d="M16.053 21.067h-1.333v-3.264c0 0 0 0 0 0 0-0.367 0.298-0.665 0.665-0.665 0.001 0 0.002 0 0.004 0h-0c3.065 0 5.205-1.888 5.205-4.59s-1.707-4.59-4.153-4.59c-2.631 0-5.028 2.315-5.028 4.853h-1.337c0-3.296 2.972-6.187 6.361-6.187 3.179 0 5.486 2.489 5.486 5.924 0 3.228-2.432 5.621-5.87 5.899z"></path>
<path fill="#576065"  d="M14.72 23.097h1.333v1.614h-1.333v-1.614z"></path>
</symbol>
</defs>
</svg>
